<svg width="15" height="15" viewBox="0 0 15 15" fill="none" xmlns="http://www.w3.org/2000/svg">
<rect width="15" height="15" rx="2" fill="#136CA5"/>
<path d="M4.396 11.316L7.468 8.076C7.78 7.756 8.024 7.48 8.2 7.248C8.376 7.008 8.5 6.788 8.572 6.588C8.652 6.388 8.692 6.18 8.692 5.964C8.692 5.54 8.556 5.208 8.284 4.968C8.012 4.728 7.66 4.608 7.228 4.608C6.804 4.608 6.432 4.712 6.112 4.92C5.792 5.12 5.508 5.432 5.26 5.856L4.468 5.196C4.796 4.652 5.192 4.244 5.656 3.972C6.12 3.692 6.656 3.552 7.264 3.552C7.776 3.552 8.22 3.652 8.596 3.852C8.98 4.052 9.276 4.332 9.484 4.692C9.692 5.052 9.796 5.472 9.796 5.952C9.796 6.296 9.752 6.604 9.664 6.876C9.584 7.148 9.436 7.428 9.22 7.716C9.012 7.996 8.72 8.332 8.344 8.724L5.86 11.28L4.396 11.316ZM4.396 12V11.316L5.356 10.992H9.988V12H4.396Z" fill="white"/>
</svg>
